HIERARCHY
ROOT hip
{
  OFFSET 0 90.174 2.4664
  CHANNELS 6 Xposition Yposition Zposition Zrotation Xrotation Yrotation
  JOINT abdomen
  {
    OFFSET 0 -1.186 -1.5018
    CHANNELS 6 Xposition Yposition Zposition Zrotation Xrotation Yrotation
    JOINT abdomen2
    {
      OFFSET 0 9.964 0.2134
      CHANNELS 6 Xposition Yposition Zposition Zrotation Xrotation Yrotation
      JOINT chest
      {
        OFFSET 0 13.134 -3.2573
        CHANNELS 6 Xposition Yposition Zposition Zrotation Xrotation Yrotation
        JOINT neck
        {
          OFFSET 0 20.686 -1.6905
          CHANNELS 6 Xposition Yposition Zposition Zrotation Xrotation Yrotation
          JOINT head
          {
            OFFSET 0 7.238 -0.1237
            CHANNELS 6 Xposition Yposition Zposition Zrotation Xrotation Yrotation
            End Site
            {
              OFFSET 0 0 0
            }
          }
        }
        JOINT lCollar
        {
          OFFSET 1.7069 20.075 5.0056
          CHANNELS 6 Xposition Yposition Zposition Zrotation Xrotation Yrotation
          JOINT lShldr
          {
            OFFSET 13.6458 -0.047 -4.849
            CHANNELS 6 Xposition Yposition Zposition Zrotation Xrotation Yrotation
            JOINT lForeArm
            {
              OFFSET 28.3255 -0.9759 2.2888
              CHANNELS 6 Xposition Yposition Zposition Zrotation Xrotation Yrotation
              JOINT lHand
              {
                OFFSET 22.1583 -0.53 10.8316
                CHANNELS 6 Xposition Yposition Zposition Zrotation Xrotation Yrotation
                JOINT lThumb1
                {
                  OFFSET 0.786 0.112 2.5817
                  CHANNELS 6 Xposition Yposition Zposition Zrotation Xrotation Yrotation
                  JOINT lThumb2
                  {
                    OFFSET 0.3601 -0.878 4.2331
                    CHANNELS 6 Xposition Yposition Zposition Zrotation Xrotation Yrotation
                    JOINT lThumb2_End
                    {
                      OFFSET 1.8127 -1.216 2.2227
                      CHANNELS 6 Xposition Yposition Zposition Zrotation Xrotation Yrotation
                      End Site
                      {
                        OFFSET 0.0181 -0.0122 0.0222
                      }
                    }
                  }
                }
                JOINT lCarpal1
                {
                  OFFSET 0.9571 1.114 1.7695
                  CHANNELS 6 Xposition Yposition Zposition Zrotation Xrotation Yrotation
                  JOINT lIndex1
                  {
                    OFFSET 4.1246 0.487 4.1451
                    CHANNELS 6 Xposition Yposition Zposition Zrotation Xrotation Yrotation
                    JOINT lIndex2
                    {
                      OFFSET 3.4052 -1.454 2.7682
                      CHANNELS 6 Xposition Yposition Zposition Zrotation Xrotation Yrotation
                      JOINT lIndex2_End
                      {
                        OFFSET 1.4531 -1.795 1.2713
                        CHANNELS 6 Xposition Yposition Zposition Zrotation Xrotation Yrotation
                        End Site
                        {
                          OFFSET 0.0145 -0.0179 0.0127
                        }
                      }
                    }
                  }
                  JOINT lMid1
                  {
                    OFFSET 5.6954 0.21 2.1184
                    CHANNELS 6 Xposition Yposition Zposition Zrotation Xrotation Yrotation
                    JOINT lMid2
                    {
                      OFFSET 3.9766 -1.54 2.3863
                      CHANNELS 6 Xposition Yposition Zposition Zrotation Xrotation Yrotation
                      JOINT lMid2_End
                      {
                        OFFSET 1.4042 -1.926 1.125
                        CHANNELS 6 Xposition Yposition Zposition Zrotation Xrotation Yrotation
                        End Site
                        {
                          OFFSET 0.014 -0.0193 0.0113
                        }
                      }
                    }
                  }
                }
                JOINT lCarpal2
                {
                  OFFSET 2.0956 0.66 -0.3894
                  CHANNELS 6 Xposition Yposition Zposition Zrotation Xrotation Yrotation
                  JOINT lRing1
                  {
                    OFFSET 5.0395 -0.09 2.4971
                    CHANNELS 6 Xposition Yposition Zposition Zrotation Xrotation Yrotation
                    JOINT lRing2
                    {
                      OFFSET 3.7921 -1.552 1.4806
                      CHANNELS 6 Xposition Yposition Zposition Zrotation Xrotation Yrotation
                      JOINT lRing2_End
                      {
                        OFFSET 1.4655 -1.808 0.9609
                        CHANNELS 6 Xposition Yposition Zposition Zrotation Xrotation Yrotation
                        End Site
                        {
                          OFFSET 0.0147 -0.0181 0.0096
                        }
                      }
                    }
                  }
                  JOINT lPinky1
                  {
                    OFFSET 4.9141 -1.269 0.3591
                    CHANNELS 6 Xposition Yposition Zposition Zrotation Xrotation Yrotation
                    JOINT lPinky2
                    {
                      OFFSET 3.1477 -1.685 0.8462
                      CHANNELS 6 Xposition Yposition Zposition Zrotation Xrotation Yrotation
                      JOINT lPinky2_End
                      {
                        OFFSET 0.8055 -1.585 0.7955
                        CHANNELS 6 Xposition Yposition Zposition Zrotation Xrotation Yrotation
                        End Site
                        {
                          OFFSET 0.0081 -0.0158 0.008
                        }
                      }
                    }
                  }
                }
              }
            }
          }
        }
        JOINT rCollar
        {
          OFFSET -1.7069 20.075 5.0056
          CHANNELS 6 Xposition Yposition Zposition Zrotation Xrotation Yrotation
          JOINT rShldr
          {
            OFFSET -13.6458 -0.047 -4.849
            CHANNELS 6 Xposition Yposition Zposition Zrotation Xrotation Yrotation
            JOINT rForeArm
            {
              OFFSET -28.3255 -0.9759 2.2888
              CHANNELS 6 Xposition Yposition Zposition Zrotation Xrotation Yrotation
              JOINT rHand
              {
                OFFSET -22.1583 -0.53 10.8316
                CHANNELS 6 Xposition Yposition Zposition Zrotation Xrotation Yrotation
                JOINT rThumb1
                {
                  OFFSET -0.786 0.112 2.5817
                  CHANNELS 6 Xposition Yposition Zposition Zrotation Xrotation Yrotation
                  JOINT rThumb2
                  {
                    OFFSET -0.3601 -0.878 4.2331
                    CHANNELS 6 Xposition Yposition Zposition Zrotation Xrotation Yrotation
                    JOINT rThumb2_End
                    {
                      OFFSET -1.8127 -1.216 2.2227
                      CHANNELS 6 Xposition Yposition Zposition Zrotation Xrotation Yrotation
                      End Site
                      {
                        OFFSET -0.0181 -0.0122 0.0222
                      }
                    }
                  }
                }
                JOINT rCarpal1
                {
                  OFFSET -0.9571 1.114 1.7695
                  CHANNELS 6 Xposition Yposition Zposition Zrotation Xrotation Yrotation
                  JOINT rIndex1
                  {
                    OFFSET -4.1246 0.487 4.1451
                    CHANNELS 6 Xposition Yposition Zposition Zrotation Xrotation Yrotation
                    JOINT rIndex2
                    {
                      OFFSET -3.4052 -1.454 2.7682
                      CHANNELS 6 Xposition Yposition Zposition Zrotation Xrotation Yrotation
                      JOINT rIndex2_End
                      {
                        OFFSET -1.4531 -1.795 1.2713
                        CHANNELS 6 Xposition Yposition Zposition Zrotation Xrotation Yrotation
                        End Site
                        {
                          OFFSET -0.0145 -0.018 0.0127
                        }
                      }
                    }
                  }
                  JOINT rMid1
                  {
                    OFFSET -5.6954 0.21 2.1184
                    CHANNELS 6 Xposition Yposition Zposition Zrotation Xrotation Yrotation
                    JOINT rMid2
                    {
                      OFFSET -3.9766 -1.54 2.3863
                      CHANNELS 6 Xposition Yposition Zposition Zrotation Xrotation Yrotation
                      JOINT rMid2_End
                      {
                        OFFSET -1.4042 -1.926 1.125
                        CHANNELS 6 Xposition Yposition Zposition Zrotation Xrotation Yrotation
                        End Site
                        {
                          OFFSET -0.014 -0.0193 0.0113
                        }
                      }
                    }
                  }
                }
                JOINT rCarpal2
                {
                  OFFSET -2.0956 0.66 -0.3894
                  CHANNELS 6 Xposition Yposition Zposition Zrotation Xrotation Yrotation
                  JOINT rRing1
                  {
                    OFFSET -5.0395 -0.09 2.4971
                    CHANNELS 6 Xposition Yposition Zposition Zrotation Xrotation Yrotation
                    JOINT rRing2
                    {
                      OFFSET -3.7921 -1.552 1.4806
                      CHANNELS 6 Xposition Yposition Zposition Zrotation Xrotation Yrotation
                      JOINT rRing2_End
                      {
                        OFFSET -1.4655 -1.808 0.9609
                        CHANNELS 6 Xposition Yposition Zposition Zrotation Xrotation Yrotation
                        End Site
                        {
                          OFFSET -0.0147 -0.0181 0.0096
                        }
                      }
                    }
                  }
                  JOINT rPinky1
                  {
                    OFFSET -4.9141 -1.269 0.3592
                    CHANNELS 6 Xposition Yposition Zposition Zrotation Xrotation Yrotation
                    JOINT rPinky2
                    {
                      OFFSET -3.1477 -1.685 0.8462
                      CHANNELS 6 Xposition Yposition Zposition Zrotation Xrotation Yrotation
                      JOINT rPinky2_End
                      {
                        OFFSET -0.8055 -1.585 0.7955
                        CHANNELS 6 Xposition Yposition Zposition Zrotation Xrotation Yrotation
                        End Site
                        {
                          OFFSET -0.0081 -0.0158 0.008
                        }
                      }
                    }
                  }
                }
              }
            }
          }
        }
      }
    }
  }
  JOINT lThigh
  {
    OFFSET 8.367 -8.2066 0.5982
    CHANNELS 6 Xposition Yposition Zposition Zrotation Xrotation Yrotation
    JOINT lShin
    {
      OFFSET 2.1923 -43.463 -0.4932
      CHANNELS 6 Xposition Yposition Zposition Zrotation Xrotation Yrotation
      JOINT lFoot
      {
        OFFSET 0.7333 -45.8593 -2.6451
        CHANNELS 6 Xposition Yposition Zposition Zrotation Xrotation Yrotation
        End Site
        {
          OFFSET 2.6618 -4.2699 12.3931
        }
      }
    }
  }
  JOINT rThigh
  {
    OFFSET -8.367 -8.2066 0.5982
    CHANNELS 6 Xposition Yposition Zposition Zrotation Xrotation Yrotation
    JOINT rShin
    {
      OFFSET -2.1923 -43.463 -0.4931
      CHANNELS 6 Xposition Yposition Zposition Zrotation Xrotation Yrotation
      JOINT rFoot
      {
        OFFSET -0.7333 -45.8593 -2.6451
        CHANNELS 6 Xposition Yposition Zposition Zrotation Xrotation Yrotation
        End Site
        {
          OFFSET -2.6618 -4.2699 12.3931
        }
      }
    }
  }
}
MOTION
Frames:	4
Frame Time:	0.0333333
0 90.174 2.4664 0 0 -0 0 -1.186 -1.5018 0 0 -0 0 9.964 0.2134 0 0 -0 0 13.134 -3.2573 0 0 -0 0 20.686 -1.6905 0 0 -0 0 7.238 -0.1237 0 0 -0 1.7069 20.075 5.0056 0 0 -0 13.6458 -0.047 -4.849 1.66051 0.0835086 5.75766 28.3255 -0.9759 2.2888 -0.0175111 0.895433 15.7816 22.1583 -0.53 10.8316 7.95139e-016 -1.98785e-016 -0 0.786 0.112 2.5817 5.46658e-016 -3.97569e-016 -0 0.3601 -0.878 4.2331 5.96354e-016 0 -0 1.8127 -1.216 2.2227 3.97569e-016 1.98785e-016 9.54166e-015 0.9571 1.114 1.7695 1.49089e-016 -3.97569e-016 -0 4.1246 0.487 4.1451 6.4605e-016 0 3.18055e-015 3.4052 -1.454 2.7682 5.96354e-016 0 3.18055e-015 1.4531 -1.795 1.2713 8.94531e-016 -1.98785e-016 6.36111e-015 5.6954 0.21 2.1184 6.4605e-016 0 3.18055e-015 3.9766 -1.54 2.3863 5.96354e-016 0 3.18055e-015 1.4042 -1.926 1.125 8.94531e-016 -1.98785e-016 6.36111e-015 2.0956 0.66 -0.3894 1.49089e-016 -3.97569e-016 -0 5.0395 -0.09 2.4971 6.4605e-016 0 3.18055e-015 3.7921 -1.552 1.4806 5.96354e-016 0 3.18055e-015 1.4655 -1.808 0.9609 8.94531e-016 -1.98785e-016 6.36111e-015 4.9141 -1.269 0.3591 6.4605e-016 0 3.18055e-015 3.1477 -1.685 0.8462 5.96354e-016 0 3.18055e-015 0.8055 -1.585 0.7955 8.94531e-016 -1.98785e-016 6.36111e-015 -1.7069 20.075 5.0056 0 0 -0 -13.6458 -0.047 -4.849 -1.4496 0.0636048 -5.0245 -28.3255 -0.9759 2.2888 -1.74811 1.20616 -16.8394 -22.1583 -0.53 10.8316 -1.19271e-015 1.98785e-016 -3.18055e-015 -0.786 0.112 2.5817 -3.97569e-016 1.98785e-016 -3.18055e-015 -0.3601 -0.878 4.2331 -2.98177e-016 1.98785e-016 -3.18055e-015 -1.8127 -1.216 2.2227 -2.98177e-016 3.97569e-016 -0 -0.9571 1.114 1.7695 4.96962e-016 0 -6.36111e-015 -4.1246 0.487 4.1451 -9.93923e-017 3.97569e-016 -0 -3.4052 -1.454 2.7682 -8.94531e-016 5.96354e-016 -0 -1.4531 -1.795 1.2713 -3.97569e-016 3.97569e-016 -0 -5.6954 0.21 2.1184 -9.93923e-017 3.97569e-016 -0 -3.9766 -1.54 2.3863 -8.94531e-016 5.96354e-016 -0 -1.4042 -1.926 1.125 -3.97569e-016 3.97569e-016 -0 -2.0956 0.66 -0.3894 4.96962e-016 0 -6.36111e-015 -5.0395 -0.09 2.4971 -9.93923e-017 3.97569e-016 -0 -3.7921 -1.552 1.4806 -8.94531e-016 5.96354e-016 -0 -1.4655 -1.808 0.9609 -3.97569e-016 3.97569e-016 -0 -4.9141 -1.269 0.3592 -9.93923e-017 3.97569e-016 -0 -3.1477 -1.685 0.8462 -8.94531e-016 5.96354e-016 -0 -0.8055 -1.585 0.7955 -3.97569e-016 3.97569e-016 -0 8.367 -8.2066 0.5982 -4.66115 -1.03232 0.120763 2.1923 -43.463 -0.4932 0.00990601 1.55097 0.177175 0.7333 -45.8593 -2.6451 4.65196 -0.54114 -0.255042 -8.367 -8.2066 0.5982 4.66115 -1.03222 -0.120763 -2.1923 -43.463 -0.4931 -0.00990459 1.5509 -0.177176 -0.7333 -45.8593 -2.6451 -4.65196 -0.541171 0.255041 
-34.4815 55.9677 18.7839 -0.0273522 -66.6681 -0.0208114 -7.10543e-015 -1.186 -1.5018 -0.189228 3.11639 -0.282969 -7.10543e-015 9.964 0.2134 -0.363822 6.23367 -0.55685 7.10543e-015 13.134 -3.2573 -0.363822 6.23369 -0.556849 -7.10543e-015 20.686 -1.6905 -4.27533e-005 -10.356 -8.30753e-006 -7.10543e-015 7.238 -0.1237 3.6702e-010 -12.6732 -1.45933e-007 1.7069 20.075 5.0056 10.9665 -28.1617 -5.38066 13.6458 -0.047 -4.849 -58.2362 -23.8994 -39.608 28.3255 -0.9759 2.2888 -9.28896 0.349704 -67.9558 22.1583 -0.53 10.8316 -20.7709 -7.09568 -8.20865 0.786 0.112 2.5817 -4.44478e-007 8.68291e-007 1.39802e-006 0.3601 -0.878 4.2331 -6.66717e-007 1.30244e-006 2.09704e-006 1.8127 -1.216 2.2227 3.02869e-006 2.6462e-006 1.79307e-006 0.9571 1.114 1.7695 8.82781e-032 -3.18055e-015 1.59028e-015 4.1246 0.487 4.1451 -4.44478e-007 8.68291e-007 1.39802e-006 3.4052 -1.454 2.7682 -6.66717e-007 1.30244e-006 2.09704e-006 1.4531 -1.795 1.2713 3.02869e-006 2.6462e-006 1.79307e-006 5.6954 0.21 2.1184 -4.44478e-007 8.68291e-007 1.39802e-006 3.9766 -1.54 2.3863 -6.66717e-007 1.30244e-006 2.09704e-006 1.4042 -1.926 1.125 3.02869e-006 2.6462e-006 1.79307e-006 2.0956 0.66 -0.3894 8.82781e-032 -3.18055e-015 1.59028e-015 5.0395 -0.09 2.4971 -4.44478e-007 8.68291e-007 1.39802e-006 3.7921 -1.552 1.4806 -6.66717e-007 1.30244e-006 2.09704e-006 1.4655 -1.808 0.9609 3.02869e-006 2.6462e-006 1.79307e-006 4.9141 -1.269 0.3591 -4.44478e-007 8.68291e-007 1.39802e-006 3.1477 -1.685 0.8462 -6.66717e-007 1.30244e-006 2.09704e-006 0.8055 -1.585 0.7955 3.02869e-006 2.6462e-006 1.79307e-006 -1.7069 20.075 5.0056 -10.9861 -28.162 5.37188 -13.6458 -0.047 -4.849 54.4415 -22.003 36.3915 -28.3255 -0.9759 2.2888 8.68067 -1.21182 66.8553 -22.1583 -0.53 10.8316 15.4397 -10.5637 6.46809 -0.786 0.112 2.5817 -2.42653e-006 -3.29975e-006 -3.98412e-006 -0.3601 -0.878 4.2331 2.09716e-007 4.78649e-007 -6.69628e-007 -1.8127 -1.216 2.2227 1.35342e-007 -3.15716e-006 -1.24497e-006 -0.9571 1.114 1.7695 3.97569e-016 0 2.38542e-015 -4.1246 0.487 4.1451 -2.42653e-006 -3.29975e-006 -3.98412e-006 -3.4052 -1.454 2.7682 2.09716e-007 4.78649e-007 -6.69628e-007 -1.4531 -1.795 1.2713 1.35342e-007 -3.15716e-006 -1.24497e-006 -5.6954 0.21 2.1184 -2.42653e-006 -3.29975e-006 -3.98412e-006 -3.9766 -1.54 2.3863 2.09716e-007 4.78649e-007 -6.69628e-007 -1.4042 -1.926 1.125 1.35342e-007 -3.15716e-006 -1.24497e-006 -2.0956 0.66 -0.3894 3.97569e-016 0 2.38542e-015 -5.0395 -0.09 2.4971 -2.42653e-006 -3.29975e-006 -3.98412e-006 -3.7921 -1.552 1.4806 2.09716e-007 4.78649e-007 -6.69628e-007 -1.4655 -1.808 0.9609 1.35342e-007 -3.15716e-006 -1.24497e-006 -4.9141 -1.269 0.3592 -2.42653e-006 -3.29975e-006 -3.98412e-006 -3.1477 -1.685 0.8462 2.09716e-007 4.78649e-007 -6.69628e-007 -0.8055 -1.585 0.7955 1.35342e-007 -3.15716e-006 -1.24497e-006 8.367 -8.2066 0.5982 6.32879 -27.2919 8.17522 2.1923 -43.463 -0.4932 5.52495 61.2448 -3.58046 0.7333 -45.8593 -2.6451 3.3042 30.2055 3.1996 -8.367 -8.2066 0.5982 -6.38337 -27.2955 -8.21782 -2.1923 -43.463 -0.4931 -5.55787 61.2493 3.6525 -0.7333 -45.8593 -2.6451 -3.2765 30.6249 -3.22302 
-49.9977 37.579 28.9939 -179.91 -83.3313 -179.897 0 -1.186 -1.5018 -0.245333 4.49753 -0.425223 -7.10543e-015 9.964 0.2134 -0.459191 8.9967 -0.834935 -7.10543e-015 13.134 -3.2573 -0.459192 8.99669 -0.834935 0 20.686 -1.6905 3.37218e-006 -15.1392 5.11536e-007 -7.10543e-015 7.238 -0.1237 -2.57195e-007 -18.0309 -3.71704e-009 1.7069 20.075 5.0056 13.5079 -40.5645 -9.21473 13.6458 -0.047 -4.849 -95.1276 -22.0947 -62.0161 28.3255 -0.9759 2.2888 -16.7739 -6.79819 -104.843 22.1583 -0.53 10.8316 -31.2502 -9.67467 -11.5973 0.786 0.112 2.5817 3.18055e-015 0 -0 0.3601 -0.878 4.2331 -4.20094e-006 -6.80219e-006 8.48321e-007 1.8127 -1.216 2.2227 9.63834e-007 9.51994e-007 9.86552e-007 0.9571 1.114 1.7695 6.36111e-015 1.59028e-015 -1.59028e-015 4.1246 0.487 4.1451 -3.18055e-015 -4.77083e-015 9.54166e-015 3.4052 -1.454 2.7682 -4.20094e-006 -6.80219e-006 8.48321e-007 1.4531 -1.795 1.2713 9.63834e-007 9.51994e-007 9.86552e-007 5.6954 0.21 2.1184 -3.18055e-015 -4.77083e-015 9.54166e-015 3.9766 -1.54 2.3863 -4.20094e-006 -6.80219e-006 8.48321e-007 1.4042 -1.926 1.125 9.63834e-007 9.51994e-007 9.86552e-007 2.0956 0.66 -0.3894 6.36111e-015 1.59028e-015 -1.59028e-015 5.0395 -0.09 2.4971 -3.18055e-015 -4.77083e-015 9.54166e-015 3.7921 -1.552 1.4806 -4.20094e-006 -6.80219e-006 8.48321e-007 1.4655 -1.808 0.9609 9.63834e-007 9.51994e-007 9.86552e-007 4.9141 -1.269 0.3591 -3.18055e-015 -4.77083e-015 9.54166e-015 3.1477 -1.685 0.8462 -4.20094e-006 -6.80219e-006 8.48321e-007 0.8055 -1.585 0.7955 9.63834e-007 9.51994e-007 9.86552e-007 -1.7069 20.075 5.0056 -13.5474 -40.5677 9.19602 -13.6458 -0.047 -4.849 88.6296 -22.329 57.2097 -28.3255 -0.9759 2.2888 17.2736 -8.92935 103.724 -22.1583 -0.53 10.8316 23.4864 -14.6989 9.66637 -0.786 0.112 2.5817 -3.18055e-015 3.97569e-016 6.36111e-015 -0.3601 -0.878 4.2331 2.06095e-006 -1.81633e-006 1.84942e-006 -1.8127 -1.216 2.2227 -1.03048e-006 9.08167e-007 -9.24709e-007 -0.9571 1.114 1.7695 -0 0 6.36111e-015 -4.1246 0.487 4.1451 4.01665e-030 -2.06736e-014 1.11319e-014 -3.4052 -1.454 2.7682 2.06095e-006 -1.81633e-006 1.84942e-006 -1.4531 -1.795 1.2713 -1.03048e-006 9.08167e-007 -9.24709e-007 -5.6954 0.21 2.1184 4.01665e-030 -2.06736e-014 1.11319e-014 -3.9766 -1.54 2.3863 2.06095e-006 -1.81633e-006 1.84942e-006 -1.4042 -1.926 1.125 -1.03048e-006 9.08167e-007 -9.24709e-007 -2.0956 0.66 -0.3894 -0 0 6.36111e-015 -5.0395 -0.09 2.4971 4.01665e-030 -2.06736e-014 1.11319e-014 -3.7921 -1.552 1.4806 2.06095e-006 -1.81633e-006 1.84942e-006 -1.4655 -1.808 0.9609 -1.03048e-006 9.08167e-007 -9.24709e-007 -4.9141 -1.269 0.3592 4.01665e-030 -2.06736e-014 1.11319e-014 -3.1477 -1.685 0.8462 2.06095e-006 -1.81633e-006 1.84942e-006 -0.8055 -1.585 0.7955 -1.03048e-006 9.08167e-007 -9.24709e-007 8.367 -8.2066 0.5982 13.4384 -39.3056 13.4693 2.1923 -43.463 -0.4932 78.2114 85.4364 -73.7984 0.7333 -45.8593 -2.6451 0.637672 43.606 6.27225 -8.367 -8.2066 0.5982 -13.6446 -39.3021 -13.6865 -2.1923 -43.463 -0.4931 -78.4791 85.3822 74.1083 -0.7333 -45.8593 -2.6451 -0.700822 44.2249 -6.22123 
-46.5494 41.7805 26.5185 -99.585 -89.9887 -99.5739 0 -1.186 -1.5018 -0.233795 4.14543 -0.393376 0 9.964 0.2134 -0.440699 8.29231 -0.772785 0 13.134 -3.2573 -0.440699 8.29231 -0.772785 0 20.686 -1.6905 -3.01649e-006 -14.3478 -3.68962e-006 0 7.238 -0.1237 -1.24737e-008 -16.073 4.38523e-007 1.7069 20.075 5.0056 12.8202 -37.6876 -8.52339 13.6458 -0.047 -4.849 -87.0506 -23.2435 -57.6725 28.3255 -0.9759 2.2888 -14.5773 -5.01929 -96.6616 22.1583 -0.53 10.8316 -29.0207 -8.94036 -11.011 0.786 0.112 2.5817 3.18055e-015 3.67752e-015 3.97569e-016 0.3601 -0.878 4.2331 3.18055e-015 2.78299e-015 -7.95139e-016 1.8127 -1.216 2.2227 6.36111e-015 -1.09332e-015 -5.36719e-015 0.9571 1.114 1.7695 3.18055e-015 5.96354e-016 3.97569e-016 4.1246 0.487 4.1451 3.18055e-015 4.07509e-015 -1.78906e-015 3.4052 -1.454 2.7682 3.18055e-015 -5.96354e-016 -1.78906e-015 1.4531 -1.795 1.2713 6.36111e-015 1.39149e-015 -3.97569e-015 5.6954 0.21 2.1184 3.18055e-015 4.07509e-015 -1.78906e-015 3.9766 -1.54 2.3863 3.18055e-015 -5.96354e-016 -1.78906e-015 1.4042 -1.926 1.125 6.36111e-015 1.39149e-015 -3.97569e-015 2.0956 0.66 -0.3894 3.18055e-015 5.96354e-016 3.97569e-016 5.0395 -0.09 2.4971 3.18055e-015 4.07509e-015 -1.78906e-015 3.7921 -1.552 1.4806 3.18055e-015 -5.96354e-016 -1.78906e-015 1.4655 -1.808 0.9609 6.36111e-015 1.39149e-015 -3.97569e-015 4.9141 -1.269 0.3591 3.18055e-015 4.07509e-015 -1.78906e-015 3.1477 -1.685 0.8462 3.18055e-015 -5.96354e-016 -1.78906e-015 0.8055 -1.585 0.7955 6.36111e-015 1.39149e-015 -3.97569e-015 -1.7069 20.075 5.0056 -12.8711 -37.695 8.49858 -13.6458 -0.047 -4.849 81.2049 -23.1439 52.9444 -28.3255 -0.9759 2.2888 14.8015 -7.05504 95.5244 -22.1583 -0.53 10.8316 21.794 -13.6371 9.10711 -0.786 0.112 2.5817 -3.18055e-015 1.59028e-014 1.59028e-015 -0.3601 -0.878 4.2331 3.18055e-015 1.66979e-014 -3.18055e-015 -1.8127 -1.216 2.2227 6.36111e-015 1.43125e-014 -0 -0.9571 1.114 1.7695 -3.18055e-015 7.95139e-016 1.59028e-015 -4.1246 0.487 4.1451 3.18055e-015 -1.03368e-014 1.11319e-014 -3.4052 -1.454 2.7682 0 1.19271e-014 -0 -1.4531 -1.795 1.2713 7.94503e-031 1.43125e-014 -3.18055e-015 -5.6954 0.21 2.1184 3.18055e-015 -1.03368e-014 1.11319e-014 -3.9766 -1.54 2.3863 0 1.19271e-014 -0 -1.4042 -1.926 1.125 7.94503e-031 1.43125e-014 -3.18055e-015 -2.0956 0.66 -0.3894 -3.18055e-015 7.95139e-016 1.59028e-015 -5.0395 -0.09 2.4971 3.18055e-015 -1.03368e-014 1.11319e-014 -3.7921 -1.552 1.4806 0 1.19271e-014 -0 -1.4655 -1.808 0.9609 7.94503e-031 1.43125e-014 -3.18055e-015 -4.9141 -1.269 0.3592 3.18055e-015 -1.03368e-014 1.11319e-014 -3.1477 -1.685 0.8462 0 1.19271e-014 -0 -0.8055 -1.585 0.7955 7.94503e-031 1.43125e-014 -3.18055e-015 8.367 -8.2066 0.5982 11.1126 -36.5937 11.3246 2.1923 -43.463 -0.4932 30.0826 81.79 -26.3071 0.7333 -45.8593 -2.6451 0.615155 40.7279 6.09222 -8.367 -8.2066 0.5982 -11.5084 -36.5811 -11.8159 -2.1923 -43.463 -0.4931 -30.3959 81.774 26.6677 -0.7333 -45.8593 -2.6451 -0.985202 41.3254 -5.79012 
